<mxfile host="app.diagrams.net" modified="2024-03-17T03:56:11.781Z" agent="Mozilla/5.0 (Macintosh; Intel Mac OS X 10.15; rv:123.0) Gecko/20100101 Firefox/123.0" version="24.0.7" etag="J7l0QnhaPjmyWI3RnsvL" type="github">
  <diagram name="Page-1" id="XYtMXynppBqGceW2eOna">
    <mxGraphModel>
      <root>
        <mxCell id="0" />
        <mxCell id="1" parent="0" />
      </root>
    </mxGraphModel>
  </diagram>
</mxfile>
